<svg id="visual" viewBox="0 0 900 600" width="900" height="600" xmlns="http://www.w3.org/2000/svg" xmlns:xlink="http://www.w3.org/1999/xlink" version="1.1"><rect x="0" y="0" width="900" height="600" fill="#001220"></rect><defs><linearGradient id="grad1_0" x1="33.3%" y1="100%" x2="100%" y2="0%"><stop offset="20%" stop-color="#fbae3c" stop-opacity="1"></stop><stop offset="80%" stop-color="#fbae3c" stop-opacity="1"></stop></linearGradient></defs><defs><linearGradient id="grad1_1" x1="33.3%" y1="100%" x2="100%" y2="0%"><stop offset="20%" stop-color="#fbae3c" stop-opacity="1"></stop><stop offset="80%" stop-color="#eb7458" stop-opacity="1"></stop></linearGradient></defs><defs><linearGradient id="grad1_2" x1="33.3%" y1="100%" x2="100%" y2="0%"><stop offset="20%" stop-color="#b84e6c" stop-opacity="1"></stop><stop offset="80%" stop-color="#eb7458" stop-opacity="1"></stop></linearGradient></defs><defs><linearGradient id="grad1_3" x1="33.3%" y1="100%" x2="100%" y2="0%"><stop offset="20%" stop-color="#b84e6c" stop-opacity="1"></stop><stop offset="80%" stop-color="#713c69" stop-opacity="1"></stop></linearGradient></defs><defs><linearGradient id="grad1_4" x1="33.3%" y1="100%" x2="100%" y2="0%"><stop offset="20%" stop-color="#2d2b4c" stop-opacity="1"></stop><stop offset="80%" stop-color="#713c69" stop-opacity="1"></stop></linearGradient></defs><defs><linearGradient id="grad1_5" x1="33.3%" y1="100%" x2="100%" y2="0%"><stop offset="20%" stop-color="#2d2b4c" stop-opacity="1"></stop><stop offset="80%" stop-color="#001220" stop-opacity="1"></stop></linearGradient></defs><defs><linearGradient id="grad2_0" x1="0%" y1="100%" x2="66.7%" y2="0%"><stop offset="20%" stop-color="#fbae3c" stop-opacity="1"></stop><stop offset="80%" stop-color="#fbae3c" stop-opacity="1"></stop></linearGradient></defs><defs><linearGradient id="grad2_1" x1="0%" y1="100%" x2="66.7%" y2="0%"><stop offset="20%" stop-color="#eb7458" stop-opacity="1"></stop><stop offset="80%" stop-color="#fbae3c" stop-opacity="1"></stop></linearGradient></defs><defs><linearGradient id="grad2_2" x1="0%" y1="100%" x2="66.7%" y2="0%"><stop offset="20%" stop-color="#eb7458" stop-opacity="1"></stop><stop offset="80%" stop-color="#b84e6c" stop-opacity="1"></stop></linearGradient></defs><defs><linearGradient id="grad2_3" x1="0%" y1="100%" x2="66.7%" y2="0%"><stop offset="20%" stop-color="#713c69" stop-opacity="1"></stop><stop offset="80%" stop-color="#b84e6c" stop-opacity="1"></stop></linearGradient></defs><defs><linearGradient id="grad2_4" x1="0%" y1="100%" x2="66.7%" y2="0%"><stop offset="20%" stop-color="#713c69" stop-opacity="1"></stop><stop offset="80%" stop-color="#2d2b4c" stop-opacity="1"></stop></linearGradient></defs><defs><linearGradient id="grad2_5" x1="0%" y1="100%" x2="66.7%" y2="0%"><stop offset="20%" stop-color="#001220" stop-opacity="1"></stop><stop offset="80%" stop-color="#2d2b4c" stop-opacity="1"></stop></linearGradient></defs><g transform="translate(900, 600)"><path d="M-243.4 0C-242.5 -18.8 -241.6 -37.7 -233 -53.2C-224.4 -68.7 -208.2 -80.8 -200 -96.3C-191.8 -111.8 -191.6 -130.7 -185.3 -147.8C-179 -164.8 -166.7 -180 -151.7 -190.3C-136.8 -200.5 -119.1 -205.9 -102.4 -212.6C-85.7 -219.4 -70.1 -227.6 -53.2 -233C-36.3 -238.4 -18.1 -240.9 0 -243.4L0 0Z" fill="#131f37"></path><path d="M-202.8 0C-202.1 -15.7 -201.3 -31.4 -194.2 -44.3C-187 -57.2 -173.5 -67.3 -166.7 -80.3C-159.8 -93.2 -159.6 -108.9 -154.4 -123.1C-149.2 -137.3 -138.9 -150 -126.5 -158.6C-114 -167.1 -99.2 -171.5 -85.3 -177.2C-71.4 -182.8 -58.4 -189.7 -44.3 -194.2C-30.2 -198.6 -15.1 -200.7 0 -202.8L0 0Z" fill="#4d345e"></path><path d="M-162.2 0C-161.6 -12.6 -161 -25.1 -155.3 -35.5C-149.6 -45.8 -138.8 -53.9 -133.3 -64.2C-127.9 -74.6 -127.7 -87.1 -123.5 -98.5C-119.4 -109.9 -111.2 -120 -101.2 -126.9C-91.2 -133.7 -79.4 -137.2 -68.3 -141.8C-57.2 -146.3 -46.7 -151.8 -35.5 -155.3C-24.2 -158.9 -12.1 -160.6 0 -162.2L0 0Z" fill="#96446e"></path><path d="M-121.7 0C-121.2 -9.4 -120.8 -18.8 -116.5 -26.6C-112.2 -34.3 -104.1 -40.4 -100 -48.2C-95.9 -55.9 -95.8 -65.4 -92.6 -73.9C-89.5 -82.4 -83.4 -90 -75.9 -95.1C-68.4 -100.3 -59.5 -102.9 -51.2 -106.3C-42.9 -109.7 -35 -113.8 -26.6 -116.5C-18.1 -119.2 -9.1 -120.4 0 -121.7L0 0Z" fill="#d55e64"></path><path d="M-81.1 0C-80.8 -6.3 -80.5 -12.6 -77.7 -17.7C-74.8 -22.9 -69.4 -26.9 -66.7 -32.1C-63.9 -37.3 -63.9 -43.6 -61.8 -49.3C-59.7 -54.9 -55.6 -60 -50.6 -63.4C-45.6 -66.8 -39.7 -68.6 -34.1 -70.9C-28.6 -73.1 -23.4 -75.9 -17.7 -77.7C-12.1 -79.5 -6 -80.3 0 -81.1L0 0Z" fill="#f88f4a"></path><path d="M-40.6 0C-40.4 -3.1 -40.3 -6.3 -38.8 -8.9C-37.4 -11.4 -34.7 -13.5 -33.3 -16.1C-32 -18.6 -31.9 -21.8 -30.9 -24.6C-29.8 -27.5 -27.8 -30 -25.3 -31.7C-22.8 -33.4 -19.8 -34.3 -17.1 -35.4C-14.3 -36.6 -11.7 -37.9 -8.9 -38.8C-6 -39.7 -3 -40.1 0 -40.6L0 0Z" fill="#fbae3c"></path></g><g transform="translate(0, 0)"><path d="M243.4 0C233.7 16.6 224 33.1 219.4 50.1C214.7 67 215.1 84.3 211.7 102C208.4 119.6 201.4 137.7 190.3 151.7C179.2 165.8 164.1 175.7 149.6 187.6C135.2 199.5 121.5 213.3 104.6 217.1C87.7 220.9 67.6 214.7 49.6 217.4C31.7 220.1 15.8 231.7 0 243.4L0 0Z" fill="#131f37"></path><path d="M202.8 0C194.7 13.8 186.7 27.6 182.8 41.7C178.9 55.8 179.2 70.2 176.4 85C173.7 99.7 167.8 114.8 158.6 126.5C149.3 138.1 136.7 146.5 124.7 156.4C112.7 166.3 101.2 177.8 87.1 180.9C73 184.1 56.3 178.9 41.4 181.2C26.4 183.4 13.2 193.1 0 202.8L0 0Z" fill="#4d345e"></path><path d="M162.2 0C155.8 11 149.3 22.1 146.2 33.4C143.1 44.7 143.4 56.2 141.2 68C138.9 79.8 134.2 91.8 126.9 101.2C119.5 110.5 109.4 117.2 99.8 125.1C90.1 133 81 142.2 69.7 144.8C58.4 147.3 45.1 143.1 33.1 144.9C21.1 146.7 10.6 154.5 0 162.2L0 0Z" fill="#96446e"></path><path d="M121.7 0C116.8 8.3 112 16.6 109.7 25C107.4 33.5 107.5 42.1 105.9 51C104.2 59.8 100.7 68.9 95.1 75.9C89.6 82.9 82 87.9 74.8 93.8C67.6 99.8 60.7 106.7 52.3 108.6C43.8 110.5 33.8 107.4 24.8 108.7C15.8 110.1 7.9 115.9 0 121.7L0 0Z" fill="#d55e64"></path><path d="M81.1 0C77.9 5.5 74.7 11 73.1 16.7C71.6 22.3 71.7 28.1 70.6 34C69.5 39.9 67.1 45.9 63.4 50.6C59.7 55.3 54.7 58.6 49.9 62.5C45.1 66.5 40.5 71.1 34.9 72.4C29.2 73.6 22.5 71.6 16.5 72.5C10.6 73.4 5.3 77.2 0 81.1L0 0Z" fill="#f88f4a"></path><path d="M40.6 0C38.9 2.8 37.3 5.5 36.6 8.3C35.8 11.2 35.8 14 35.3 17C34.7 19.9 33.6 23 31.7 25.3C29.9 27.6 27.3 29.3 24.9 31.3C22.5 33.3 20.2 35.6 17.4 36.2C14.6 36.8 11.3 35.8 8.3 36.2C5.3 36.7 2.6 38.6 0 40.6L0 0Z" fill="#fbae3c"></path></g></svg>